<?xml version="1.0" encoding="UTF-8" standalone="no" ?>
<!DOCTYPE svg PUBLIC "-//W3C//DTD SVG 1.1//EN" "http://www.w3.org/Graphics/SVG/1.1/DTD/svg11.dtd">
<svg xmlns="http://www.w3.org/2000/svg" xmlns:xlink="http://www.w3.org/1999/xlink" version="1.1" width="1080" height="1080" viewBox="0 0 1080 1080" xml:space="preserve">
<desc>Created with Fabric.js 5.2.4</desc>
<defs>
</defs>
<g transform="matrix(1 0 0 1 540 540)" id="34b8b83f-50a3-4180-be87-25c0735907ae"  >
<rect style="stroke: none; stroke-width: 1; stroke-dasharray: none; stroke-linecap: butt; stroke-dashoffset: 0; stroke-linejoin: miter; stroke-miterlimit: 4; fill: rgb(255,255,255); fill-rule: nonzero; opacity: 1; visibility: hidden;" vector-effect="non-scaling-stroke"  x="-540" y="-540" rx="0" ry="0" width="1080" height="1080" />
</g>
<g transform="matrix(1 0 0 1 540 540)" id="4b984b6e-29a2-4aa9-98aa-82f030855788"  >
</g>
<g transform="matrix(1 0 0 1 540 540)"  >
<g style="" vector-effect="non-scaling-stroke"   >
		<g transform="matrix(1 0 0 1 280.15 -13.65)"  >
<path style="stroke: none; stroke-width: 1; stroke-dasharray: none; stroke-linecap: butt; stroke-dashoffset: 0; stroke-linejoin: miter; stroke-miterlimit: 4; fill: rgb(0,0,0); fill-rule: nonzero; opacity: 1;" vector-effect="non-scaling-stroke"  transform=" translate(-780.15, -486.35)" d="M 780.145 365 C 792.842 365 801.549 374.432 801.549 387.492 L 801.549 508.295 C 801.549 521.355 792.842 530.787 780.145 530.787 C 767.086 530.787 758.742 521.355 758.742 508.295 L 758.742 387.492 C 758.742 374.432 767.086 365 780.145 365 Z M 780.145 607.694 C 764.546 607.694 752.212 595.36 752.212 579.761 C 752.212 564.525 764.546 552.19 780.145 552.19 C 795.745 552.19 808.079 564.525 808.079 579.761 C 808.079 595.36 795.745 607.694 780.145 607.694 Z" stroke-linecap="round" />
</g>
		<g transform="matrix(1 0 0 1 142.47 15.55)"  >
<path style="stroke: none; stroke-width: 1; stroke-dasharray: none; stroke-linecap: butt; stroke-dashoffset: 0; stroke-linejoin: miter; stroke-miterlimit: 4; fill: rgb(0,0,0); fill-rule: nonzero; opacity: 1;" vector-effect="non-scaling-stroke"  transform=" translate(-642.47, -515.55)" d="M 701.968 423.406 C 715.028 423.406 723.372 432.838 723.372 445.535 L 723.372 525.708 C 723.372 584.84 686.915 607.694 642.656 607.694 C 598.035 607.694 561.578 584.84 561.578 525.708 L 561.578 445.535 C 561.578 432.838 569.922 423.406 582.982 423.406 C 595.679 423.406 604.385 432.838 604.385 445.535 L 604.385 522.806 C 604.385 555.092 617.988 567.789 642.656 567.789 C 666.962 567.789 680.565 555.092 680.565 522.806 L 680.565 445.535 C 680.565 432.838 689.271 423.406 701.968 423.406 Z" stroke-linecap="round" />
</g>
		<g transform="matrix(1 0 0 1 -34.12 14.1)"  >
<path style="stroke: none; stroke-width: 1; stroke-dasharray: none; stroke-linecap: butt; stroke-dashoffset: 0; stroke-linejoin: miter; stroke-miterlimit: 4; fill: rgb(0,0,0); fill-rule: nonzero; opacity: 1;" vector-effect="non-scaling-stroke"  transform=" translate(-465.88, -514.1)" d="M 440.2 472.381 C 440.2 484.352 452.534 488.706 476.115 494.147 C 508.764 502.128 539.963 510.472 539.963 550.74 C 539.963 589.919 510.941 607.695 469.222 607.695 C 434.759 607.695 409.727 595.723 398.119 581.938 C 389.049 571.055 390.138 561.623 398.844 553.279 C 409.727 542.759 419.159 547.112 425.327 552.553 C 435.121 561.623 447.093 571.055 470.31 571.055 C 487.723 571.055 498.607 565.25 498.607 553.642 C 498.607 542.033 486.998 538.043 456.525 529.699 C 426.415 521.355 399.57 513.374 399.57 477.46 C 399.57 437.192 432.219 420.504 468.496 420.504 C 489.174 420.504 512.755 425.946 527.266 441.545 C 533.433 447.712 538.149 456.419 527.266 468.39 C 516.382 479.636 508.401 476.371 500.783 470.567 C 493.891 465.488 481.919 456.782 463.78 456.782 C 451.446 456.782 440.2 460.772 440.2 472.381 Z" stroke-linecap="round" />
</g>
		<g transform="matrix(1 0 0 1 -218.18 13.8)"  >
<path style="stroke: none; stroke-width: 1; stroke-dasharray: none; stroke-linecap: butt; stroke-dashoffset: 0; stroke-linejoin: miter; stroke-miterlimit: 4; fill: rgb(0,0,0); fill-rule: nonzero; opacity: 1;" vector-effect="non-scaling-stroke"  transform=" translate(-281.82, -513.8)" d="M 281.815 607.695 C 229.509 607.695 192 567.661 192 513.797 C 192 459.569 229.509 419.899 281.815 419.899 C 334.122 419.899 371.631 459.569 371.631 513.797 C 371.631 567.661 334.122 607.695 281.815 607.695 Z M 281.815 567.661 C 312.098 567.661 331.025 544.368 331.025 513.797 C 331.025 483.225 312.098 459.569 281.815 459.569 C 251.533 459.569 232.606 483.225 232.606 513.797 C 232.606 544.368 251.533 567.661 281.815 567.661 Z" stroke-linecap="round" />
</g>
		<g transform="matrix(1 0 0 1 0 0)"  >
<path style="stroke: none; stroke-width: 1; stroke-dasharray: none; stroke-linecap: butt; stroke-dashoffset: 0; stroke-linejoin: miter; stroke-miterlimit: 4; fill: rgb(0,0,0); fill-rule: nonzero; opacity: 1;" vector-effect="non-scaling-stroke"  transform=" translate(-500, -500)" d="M 950 500 C 950 748.528 748.528 950 500 950 C 251.472 950 50 748.528 50 500 C 50 251.472 251.472 50 500 50 C 748.528 50 950 251.472 950 500 Z M 95 500 C 95 723.675 276.325 905 500 905 C 723.675 905 905 723.675 905 500 C 905 276.325 723.675 95 500 95 C 276.325 95 95 276.325 95 500 Z" stroke-linecap="round" />
</g>
</g>
</g>
</svg>